<?xml version="1.0" encoding="UTF-8"?>
<svg width="20px" height="20px" viewBox="0 0 20 20" version="1.1" xmlns="http://www.w3.org/2000/svg" xmlns:xlink="http://www.w3.org/1999/xlink">
    <!-- Generator: Sketch 52.2 (67145) - http://www.bohemiancoding.com/sketch -->
    <title>Shape</title>
    <desc>Created with Sketch.</desc>
    <g id="1009整合" stroke="none" stroke-width="1" fill="none" fill-rule="evenodd">
        <g id="首页-CRS" transform="translate(-400.000000, -1534.000000)" fill="#00C5DC" fill-rule="nonzero">
            <g id="以IT资产为核心的全新安全体系" transform="translate(0.000000, 1010.000000)">
                <g id="Group-25" transform="translate(400.000000, 287.000000)">
                    <g id="Group-15" transform="translate(0.000000, 51.000000)">
                        <g id="Group-19" transform="translate(0.000000, 185.000000)">
                            <path d="M9.00319131,16.3405454 C8.76351413,16.3405454 8.52151682,16.2486733 8.34009276,16.067181 L4.48032791,12.2074162 C4.11522793,11.8422934 4.11522793,11.2441809 4.48032791,10.879081 C4.84774801,10.5139582 5.4435404,10.5139582 5.80875413,10.879081 L9.00548866,14.0734954 L17.1685474,5.9104139 C17.5336929,5.54529118 18.1295763,5.54529118 18.4947217,5.9104139 C18.8598217,6.27781126 18.8598217,6.87144276 18.4947217,7.23656549 L9.66624434,16.0672265 C9.48477479,16.2486733 9.24280025,16.3405454 9.00319131,16.3405454 Z M10.0000682,21 C4.48696981,21 0,16.5152366 0,11.0000682 C0,5.48696981 4.48478618,1 10.0000682,1 C11.9668906,1 13.8710015,1.57118096 15.5040682,2.64871608 C15.8334338,2.86821735 15.9274895,3.30960825 15.7079883,3.6388374 C15.4906251,3.96818027 15.0493707,4.05777775 14.7155468,3.84052835 C13.3154472,2.91757672 11.6868843,2.42916934 10.0000682,2.42916934 C5.27330752,2.42916934 1.42919207,6.27549115 1.42919207,11.0000455 C1.42919207,15.7244634 5.27330752,19.5708079 10.0000682,19.5708079 C14.7268062,19.5708079 18.5708307,15.7267835 18.5708307,11.0000455 C18.5708307,10.6997723 18.5573649,10.401933 18.5260888,10.1061635 C18.485737,9.71642938 18.7702242,9.36465869 19.1622558,9.32210048 C19.5542873,9.27954228 19.9059443,9.56634966 19.9463189,9.95838119 C19.9821897,10.3055799 19.9978391,10.6527331 19.9978391,11.0000455 C19.9978164,16.5152366 15.5152366,21 10.0000682,21 Z" id="Shape"></path>
                        </g>
                    </g>
                </g>
            </g>
        </g>
    </g>
</svg>